<svg xmlns="http://www.w3.org/2000/svg" width="40" height="40" viewBox="0 0 2048 2048" role="img" aria-label="TomlJump">
<g transform="translate(1024 1024) scale(1.2) translate(-1024 -1024)">
<path transform="translate(0,0)" fill="rgb(45,195,165)" d="M 337.361 387.409 C 360.226 386.391 389.445 387.136 412.79 387.14 L 553.709 387.192 L 698.728 387.109 C 711.189 387.101 786.49 384.758 793.276 391.139 C 847.398 442.029 899.821 495.872 951.207 549.589 C 964.284 563.259 961.267 575.443 961.276 593.334 L 961.253 647.571 L 961.195 848.335 L 961.226 1011.1 C 961.24 1036.66 961.91 1066.96 960.297 1092.09 C 959.384 1106.31 947.438 1132.32 938.032 1143.63 C 916.543 1169.47 893.679 1180.75 860.925 1184.83 C 823.473 1185.93 780.31 1184.96 742.53 1184.96 L 511.139 1184.94 L 394.459 1184.98 C 347.871 1185.05 310.97 1190.99 273.037 1158.03 C 251.647 1139.24 238.577 1112.74 236.694 1084.33 C 235.817 1071.14 236.283 1053.42 236.287 1039.8 L 236.33 962.389 L 236.352 719.847 L 236.29 560.487 C 236.276 535.169 234.39 501.973 237.735 477.44 C 244.484 427.956 289.258 390.404 337.361 387.409 z"/>
<path transform="translate(0,0)" fill="rgb(255,255,255)" d="M 338.4 428.277 C 385.753 426.724 439.241 427.994 487.3 427.993 L 768.118 428.031 L 768.014 511.182 C 767.63 581.505 765.202 580.996 836.401 580.876 L 919.943 580.697 L 919.977 918.398 L 919.983 1024.15 C 919.982 1040.88 920.055 1057.61 919.805 1074.34 C 919.271 1110.16 896.721 1136.65 861.424 1143.31 C 843.311 1145.07 805.274 1143.97 785.351 1143.95 L 643.589 1143.97 L 441.068 1143.93 C 408.498 1143.91 375.597 1144.12 343.02 1143.89 C 334.259 1143.83 324.313 1141.15 316.379 1137.38 C 300.124 1129.68 287.659 1115.76 281.806 1098.76 C 279.528 1092.46 278.241 1085.85 277.991 1079.15 C 276.689 1046.73 277.725 1007.14 277.747 974.373 L 277.744 784.362 L 277.741 595.526 C 277.744 562.725 277.705 529.946 278.001 497.146 C 278.336 460.037 302.033 433.757 338.4 428.277 z"/>
<path transform="translate(0,0)" fill="rgb(45,195,165)" d="M 380.634 553.103 C 390.578 552.726 431.761 551.137 435.281 555.72 C 456.566 583.437 403.575 577.541 398.251 577.432 L 398.217 705.828 L 430.215 705.986 C 438.174 709.633 444.503 719.059 436.922 726.423 C 428.77 734.343 405.974 729.477 394.821 731.019 C 388.914 731.836 379.396 730 374.894 725.488 C 373.793 721.285 373.069 715.715 373.082 711.286 C 373.228 661.769 372.633 612.195 373.275 562.695 C 373.327 558.68 377.743 555.314 380.634 553.103 z"/>
<path transform="translate(0,0)" fill="rgb(45,195,165)" d="M 545.868 553.17 C 557.131 552.686 588.029 550.77 597.973 554.342 C 600.527 555.259 601.239 555.725 602.212 558.315 C 606.169 568.853 605.052 697.366 604.217 713.644 C 603.993 717.999 603.528 722.213 601.901 726.289 C 593.542 733.275 566.52 730.746 553.75 730.707 C 533.316 731.055 532.143 706.036 552.756 705.818 C 561.629 705.723 570.477 705.853 579.349 705.944 C 578.769 663.669 579.279 619.905 579.283 577.526 C 570.883 577.363 562.535 577.909 554.194 577.699 C 537.304 577.274 531.76 564.221 545.868 553.17 z"/>
<path transform="translate(0,0)" fill="rgb(45,195,165)" d="M 382.607 970.349 C 414.253 968.996 450.946 971.004 483.081 970.098 C 491.503 969.861 544.007 969.635 549.701 971.16 C 553.647 972.224 556.984 974.859 558.934 978.451 C 565.003 989.465 558.586 997.436 548.629 1002.2 C 510.368 1003.99 470.088 1001.59 431.629 1002.45 C 415.47 1002.81 396.45 1002.87 380.405 1001.87 C 365.243 992.207 365.848 977.678 382.607 970.349 z"/>
<path transform="translate(0,0)" fill="rgb(45,195,165)" d="M 384.863 854.372 L 490.506 854.337 C 507.919 854.334 534.106 853.524 550.866 854.988 C 566.209 865.124 564.272 883.275 545.404 886.683 C 523.292 886.543 386.469 888.796 378.198 884.718 C 374.32 882.806 371.527 878.896 370.417 874.784 C 369.267 870.525 369.652 865.635 372.072 861.875 C 375.072 857.212 379.684 855.5 384.863 854.372 z"/>
<path transform="translate(0,0)" fill="rgb(45,195,165)" d="M 728.218 859.353 C 758.96 858.507 790.178 859.704 820.939 859.122 C 831.013 858.932 847.774 857.025 847.537 871.141 C 847.44 876.91 843.276 879.506 838.746 881.732 C 823.086 882.17 735.694 883.612 726.561 880.743 C 723.712 879.848 721.34 877.174 720.18 874.488 C 718.988 871.73 719.107 869.111 720.26 866.366 C 721.916 862.422 724.42 860.976 728.218 859.353 z"/>
<path transform="translate(0,0)" fill="rgb(45,195,165)" d="M 727.661 975.122 L 800.547 974.946 C 813.081 974.94 826.515 974.456 838.996 975.737 C 841.666 976.011 844.353 978.019 845.706 980.369 C 850.239 988.244 846.621 993.197 839.844 997.13 C 834.758 997.371 829.275 997.341 824.149 997.265 C 792.336 996.79 760.296 998.309 728.551 996.86 C 725.744 996.732 722.344 994.235 720.854 991.849 C 719.226 989.206 718.776 986.004 719.613 983.015 C 720.847 978.729 724.057 977.112 727.661 975.122 z"/>
<path transform="translate(0,0)" fill="rgb(45,195,165)" d="M 609.059 876.243 C 619.523 876.135 630.132 875.863 640.581 875.975 C 648.961 876.065 669.518 873.843 669.239 885.739 C 667.431 889.292 666.974 889.438 663.769 892.013 C 650.638 892.183 614.026 894.759 605.032 888.51 C 601.86 882.648 603.951 879.67 609.059 876.243 z"/>
<path transform="translate(0,0)" fill="rgb(45,195,165)" d="M 608.348 967.063 C 622.068 966.903 657.731 964.433 667.607 970.67 C 671.252 976.491 669.03 978.524 664.175 982.534 C 656.18 983.241 583.468 988.83 608.348 967.063 z"/>
<path transform="translate(0,0)" fill="rgb(45,195,165)" d="M 608.344 992.069 C 618.855 991.951 629.625 991.594 640.106 991.755 C 648.939 991.89 668.106 989.154 669.185 1000.71 C 667.879 1004.45 667.092 1004.84 664.219 1007.47 C 655.321 1008.46 585.555 1014.16 608.344 992.069 z"/>
<path transform="translate(0,0)" fill="rgb(45,195,165)" d="M 608.808 851.431 C 622.494 851.32 636.239 851.183 649.898 851.202 C 655.824 851.211 669.885 851.447 669.052 860.268 C 668.805 862.888 666.471 865.097 664.718 866.896 C 654.801 867.47 601.385 871.346 602.587 858.246 C 605.112 854.432 605.219 854.114 608.808 851.431 z"/>
<path transform="translate(0,0)" fill="rgb(19,130,251)" d="M 1218.14 916.403 L 1535.66 916.333 L 1632.32 916.34 C 1649.6 916.321 1667.97 916.067 1685.12 916.974 C 1699.84 917.753 1718.42 941.349 1728.82 952.126 L 1782.54 1007.98 L 1828.7 1055.36 C 1841.89 1068.96 1858.07 1080.46 1858.38 1100.32 C 1858.89 1132.58 1858.62 1164.81 1858.63 1197.08 L 1858.68 1389.8 L 1858.72 1508.06 C 1858.74 1528.72 1860.48 1556.66 1857.15 1576.53 C 1848.73 1626.71 1807.14 1661.15 1758.06 1663.51 L 1377.11 1663.45 L 1270.98 1663.39 C 1255.31 1663.42 1222.43 1664.4 1208.32 1662.35 C 1190.17 1659.58 1173.1 1651.96 1158.94 1640.28 C 1119.22 1606.9 1120.21 1575.41 1120.2 1528.37 L 1120.22 1459.75 L 1120.25 1241.41 L 1120.21 1080.81 C 1120.21 1057.23 1118.24 1025.17 1121.3 1002.58 C 1127.96 953.444 1171.81 919.924 1218.14 916.403 z"/>
<path transform="translate(0,0)" fill="rgb(255,255,255)" d="M 1218.51 957.321 C 1267.1 955.443 1325.83 957.033 1375.16 957.03 L 1675.69 957.028 C 1675.86 984.494 1675.88 1011.96 1675.77 1039.43 C 1675.33 1107.11 1672.11 1107.12 1741.5 1106.91 L 1818.99 1106.84 L 1818.98 1420.62 L 1818.99 1513.03 C 1818.99 1529.6 1819.8 1547.49 1818.3 1563.91 C 1815.39 1595.94 1792.24 1617.21 1761.83 1622.38 C 1752.12 1623.34 1737.68 1622.94 1727.67 1622.93 L 1673.74 1622.9 L 1494.52 1622.88 L 1310.62 1622.88 L 1254.15 1622.98 C 1242.68 1623 1231.4 1623.19 1219.75 1622.46 C 1192.92 1621.88 1163.53 1595.92 1161.17 1568.76 C 1158.98 1543.53 1160.07 1511.81 1160.09 1485.58 L 1160.15 1319.96 L 1160.12 1114.78 L 1160.13 1050.44 C 1160.14 1041.26 1159.71 1023.93 1160.49 1015.47 C 1161.65 1003.45 1166.12 991.986 1173.4 982.348 C 1184.98 967.279 1199.94 959.738 1218.51 957.321 z"/>
<path transform="translate(0,0)" fill="rgb(19,130,251)" d="M 1609.94 1201.19 C 1614.2 1201.26 1620.15 1201.43 1623.52 1204.27 C 1639.3 1217.61 1654.62 1232.14 1669.84 1246.11 L 1712.65 1285.61 C 1743.76 1314.52 1751.47 1317.47 1715.04 1348.78 C 1684.65 1374.9 1655.44 1403.93 1624.72 1429.72 C 1605.41 1441.89 1586.25 1419.19 1597.86 1404.12 C 1604.87 1395.04 1621.35 1381.22 1630.3 1373.03 L 1689.36 1318.61 C 1659.29 1288.15 1623.85 1260.59 1596.03 1228.23 C 1588.43 1219.39 1599.93 1204.99 1609.94 1201.19 z"/>
<path transform="translate(0,0)" fill="rgb(19,130,251)" d="M 1355.9 1201.23 C 1374.22 1200.9 1386.01 1218.63 1373.52 1233.12 C 1365.15 1242.83 1353.47 1252.7 1344.01 1261.65 C 1323.92 1280.76 1303.69 1299.73 1283.32 1318.55 C 1298.25 1332.39 1370.14 1395.66 1376.14 1406.23 C 1378.34 1410.1 1378.95 1415.23 1377.74 1419.51 C 1376.3 1424.6 1372.16 1428.78 1367.6 1431.26 C 1362.49 1434.05 1357.09 1433.3 1351.71 1431.91 C 1341.5 1425.89 1238.36 1332.15 1235.74 1326.06 C 1233.86 1321.7 1233.29 1316.39 1235.33 1311.99 C 1237.27 1307.8 1240.55 1304.17 1243.77 1300.91 C 1260.88 1283.66 1279.85 1267.8 1297.69 1251.24 C 1314.07 1236.04 1330.31 1218.68 1348.04 1205.24 C 1350.47 1203.39 1353.04 1202.24 1355.9 1201.23 z"/>
<path transform="translate(0,0)" fill="rgb(19,130,251)" d="M 1523.02 1159.08 C 1531.89 1158.31 1540.35 1160.45 1544.83 1168.65 C 1548.16 1174.76 1544.46 1186.95 1542.46 1193.18 C 1522.82 1254.39 1502.82 1315.47 1482.84 1376.56 L 1465.16 1431.11 C 1462.08 1440.61 1458.92 1450.84 1455.34 1460.16 C 1453.62 1464.63 1447.65 1467.6 1443.64 1469.69 C 1435.33 1470.47 1426.36 1467.37 1423.02 1459.44 C 1419 1449.9 1428.56 1427.28 1431.62 1417.62 L 1452.52 1351.7 L 1488.15 1239.4 C 1495.2 1216.93 1502.19 1194.1 1509.65 1171.75 C 1512.07 1164.51 1516.4 1162.15 1523.02 1159.08 z"/>
<path transform="translate(0,0)" fill="rgb(45,195,165)" d="M 956.782 1383.89 C 958.495 1383.72 960.984 1383.34 962.691 1383.65 C 966.748 1384.38 1047.28 1448.6 1050.89 1453.59 C 1052.68 1456.07 1053.25 1458.36 1052.82 1461.35 C 1052.5 1463.54 1051.73 1464.7 1050.26 1466.3 C 1043.28 1473.83 1033.29 1480.13 1025.12 1486.38 C 1009.15 1498.53 993.249 1510.78 977.427 1523.12 C 971.179 1528.3 966.161 1534.14 957.608 1531.13 C 948.608 1523.65 953.361 1495.26 951.552 1479.31 C 925.041 1478.13 885.595 1490.23 889.07 1455.2 C 891.728 1428.4 930.219 1438.83 951.721 1437.28 C 954.043 1420.67 948.94 1393.55 956.782 1383.89 z"/>
<path transform="translate(0,0)" fill="rgb(45,195,165)" d="M 683.913 1406.9 C 695.682 1407.06 722.358 1424.73 735.588 1428.17 C 752.411 1432.54 743.988 1453.07 739.017 1463.15 C 737.298 1466.63 732.691 1467.92 729.112 1468.82 C 714.271 1465.79 679.081 1451.31 667.774 1439.97 C 660.196 1432.38 675.69 1411.33 683.913 1406.9 z"/>
<path transform="translate(0,0)" fill="rgb(45,195,165)" d="M 790.707 1438.03 C 796.291 1437.97 804.481 1437.96 809.67 1437.81 C 837.264 1436.98 856.169 1432.74 850.381 1469.6 C 849.626 1474.41 845.39 1476.69 841.494 1478.94 C 825.89 1479.34 810.259 1479.61 794.361 1478.81 C 776.822 1477.92 781.082 1460.25 781.655 1448.1 C 781.856 1443.83 787.449 1440.08 790.707 1438.03 z"/>
<path transform="translate(0,0)" fill="rgb(45,195,165)" d="M 583.45 1237.39 C 618.698 1236.2 611.826 1241.65 614.905 1275.02 C 615.979 1286.67 617.433 1299.19 603.873 1302.71 C 593.418 1304.45 578.369 1308.66 575.384 1294.57 C 572.414 1280.55 570.011 1257.29 574.763 1243.39 C 575.978 1239.84 580.244 1238.31 583.45 1237.39 z"/>
<path transform="translate(0,0)" fill="rgb(45,195,165)" d="M 619.555 1335.06 C 632.2 1336.02 632.347 1344.08 637.966 1353.53 C 644.056 1363.77 658.082 1376.23 650.963 1389.12 C 647.627 1395.16 636.051 1402.23 629.546 1403.9 C 616.299 1399.98 606.307 1378.93 599.331 1367.67 C 585.738 1345.74 602.629 1341.88 619.555 1335.06 z"/>
</g>
</svg>
